<?xml version="1.0" encoding="utf-8"?>
<!-- Generator: Adobe Illustrator 19.0.1, SVG Export Plug-In . SVG Version: 6.00 Build 0)  -->
<svg version="1.1" id="Layer_1" xmlns="http://www.w3.org/2000/svg" xmlns:xlink="http://www.w3.org/1999/xlink" x="0px" y="0px"
	 viewBox="-229 320.3 152.7 152.7" style="enable-background:new -229 320.3 152.7 152.7;" xml:space="preserve">
<style type="text/css">
	.st0{fill:#FFFFFF;}
</style>
<g id="Group_10" transform="translate(-10033.968 496.308)">
	<g id="Group_9" transform="translate(38.302 35.305)">
		<g id="Group_8">
			<path id="Path_10" class="st0" d="M9881.1-148.6c0-5.7-4.6-10.4-10.3-10.4c-5.7,0-10.4,4.6-10.4,10.3c0,5.2,3.9,9.6,9.1,10.3
				v26.9c0,8.9-7.3,16.2-16.2,16.2h-10.9c-8.9,0-16.2-7.3-16.2-16.2v-15.3h4.6c5.8,0,9.1-5.9,10-9.8c0.1-0.8,3.3-19.9,3.8-26.6
				c0.2-2.5-0.7-5-2.5-6.8c-2-2.1-4.7-3.3-7.5-3.3h-1.8c-0.1-0.8-0.7-1.3-1.4-1.3h-2.6c-0.8,0-1.4,0.6-1.4,1.4v2.3
				c0,0.8,0.6,1.4,1.4,1.4h2.6c0.8,0,1.4-0.6,1.4-1.3h1.8c2.1,0,4.2,0.9,5.7,2.5c1.3,1.3,1.9,3.1,1.8,4.9
				c-0.4,6.5-3.8,26.1-3.8,26.2c-0.6,3-3.3,7.7-7.5,7.7h-11.8c-4.2,0-6.8-4.8-7.5-7.7c0-0.2-3.3-19.8-3.8-26.3
				c-0.1-1.8,0.5-3.6,1.8-4.9c1.5-1.6,3.5-2.5,5.7-2.5h1.8c0.1,0.8,0.7,1.3,1.4,1.3h2.6c0.8,0,1.4-0.6,1.4-1.4v-2.4
				c0-0.8-0.6-1.4-1.4-1.4c0,0,0,0,0,0h-2.6c-0.8,0-1.4,0.6-1.4,1.3h-1.8c-2.9,0-5.6,1.2-7.5,3.3c-1.8,1.8-2.7,4.3-2.5,6.8
				c0.5,6.6,3.7,25.7,3.8,26.6c0.8,3.9,4.2,9.8,10,9.8h4.6v15.3c0,10.4,8.4,18.8,18.8,18.8h10.9c10.4,0,18.8-8.4,18.8-18.8v-26.9
				C9877.1-139,9881.1-143.4,9881.1-148.6L9881.1-148.6z M9870.7-140.8c-4.3,0-7.8-3.4-7.8-7.7s3.4-7.8,7.7-7.8
				c4.3,0,7.8,3.4,7.8,7.7C9878.4-144.3,9875-140.8,9870.7-140.8C9870.7-140.8,9870.7-140.8,9870.7-140.8z M9870.7-153
				c-2.4,0-4.4,2-4.4,4.4c0,2.4,2,4.4,4.4,4.4c2.4,0,4.4-2,4.4-4.4l0,0C9875.1-151,9873.1-153,9870.7-153z M9870.7-146.8
				c-1,0-1.8-0.8-1.8-1.8s0.8-1.8,1.8-1.8c1,0,1.8,0.8,1.8,1.8C9872.5-147.6,9871.7-146.8,9870.7-146.8
				C9870.7-146.8,9870.7-146.8,9870.7-146.8z"/>
		</g>
	</g>
</g>
</svg>
