<?xml version="1.0" encoding="utf-8"?>
<!-- Generator: Adobe Illustrator 19.0.1, SVG Export Plug-In . SVG Version: 6.00 Build 0)  -->
<svg version="1.1" id="Layer_1" xmlns="http://www.w3.org/2000/svg" xmlns:xlink="http://www.w3.org/1999/xlink" x="0px" y="0px"
	 viewBox="-229 320.3 152.7 152.7" style="enable-background:new -229 320.3 152.7 152.7;" xml:space="preserve">
<style type="text/css">
	.st0{fill:#FFFFFF;}
	.st1{fill:none;}
	.st2{fill:none;stroke:#FFFFFF;stroke-width:3;}
</style>
<g id="browser" transform="translate(335.766 530.928)">
	<path id="Path_1627" class="st0" d="M-442.6-169h-94.8c-0.9,0-1.6,0.7-1.6,1.6v69.7c0,0.9,0.7,1.6,1.6,1.6c0,0,0,0,0,0h94.8
		c0.9,0,1.6-0.7,1.6-1.6l0,0v-69.7C-441-168.3-441.7-169-442.6-169z M-444.2-165.9v11.7h-91.6v-11.7L-444.2-165.9z M-535.8-99.3
		V-151h91.6v51.7H-535.8z"/>
	<path id="Path_1628" class="st0" d="M-516.5-155.5h67.5c0.9,0,1.6-0.7,1.6-1.6l0,0v-5.9c0-0.9-0.7-1.6-1.6-1.6l0,0h-67.5
		c-0.9,0-1.6,0.7-1.6,1.6v5.9C-518.1-156.2-517.4-155.5-516.5-155.5C-516.5-155.5-516.5-155.5-516.5-155.5z M-514.9-161.4h64.3v2.7
		h-64.3L-514.9-161.4z"/>
	<path id="Path_1629" class="st0" d="M-532.2-158.4c0.9,0,1.6-0.7,1.6-1.6c0-0.9-0.7-1.6-1.6-1.6c-0.9,0-1.6,0.7-1.6,1.6
		c0,0.4,0.2,0.8,0.5,1.1C-533-158.6-532.6-158.4-532.2-158.4z"/>
	<path id="Path_1630" class="st0" d="M-527-158.4c0.9,0,1.6-0.7,1.6-1.6c0-0.9-0.7-1.6-1.6-1.6c-0.9,0-1.6,0.7-1.6,1.6
		c0,0.4,0.2,0.8,0.5,1.1C-527.8-158.6-527.4-158.4-527-158.4z"/>
	<path id="Path_1631" class="st0" d="M-521.9-158.4c0.9,0,1.6-0.7,1.6-1.6s-0.7-1.6-1.6-1.6s-1.6,0.7-1.6,1.6
		S-522.8-158.4-521.9-158.4z"/>
	<g id="Rectangle_307" transform="translate(14.948 22.497)">
		<path class="st1" d="M-536-169h62.7c1.7,0,3,1.3,3,3v13.6c0,1.7-1.3,3-3,3H-536c-1.7,0-3-1.3-3-3V-166
			C-539-167.7-537.7-169-536-169z"/>
		<path class="st2" d="M-536-167.5h62.7c0.8,0,1.5,0.7,1.5,1.5v13.6c0,0.8-0.7,1.5-1.5,1.5H-536c-0.8,0-1.5-0.7-1.5-1.5V-166
			C-537.5-166.9-536.8-167.5-536-167.5z"/>
	</g>
</g>
<path id="Rectangle_308" class="st0" d="M-185.2,408.9h63.8c1,0,1.8,0.8,1.8,1.8l0,0c0,1-0.8,1.8-1.8,1.8h-63.8
	c-1,0-1.8-0.8-1.8-1.8l0,0C-187.1,409.7-186.2,408.9-185.2,408.9z"/>
<path id="Rectangle_309" class="st0" d="M-185.2,415.1h63.8c1,0,1.8,0.8,1.8,1.8l0,0c0,1-0.8,1.8-1.8,1.8h-63.8
	c-1,0-1.8-0.8-1.8-1.8l0,0C-187.1,415.9-186.2,415.1-185.2,415.1z"/>
<path id="Rectangle_310" class="st0" d="M-185.2,422.4h63.8c1,0,1.8,0.8,1.8,1.8l0,0c0,1-0.8,1.8-1.8,1.8h-63.8
	c-1,0-1.8-0.8-1.8-1.8l0,0C-187.1,423.2-186.2,422.4-185.2,422.4z"/>
</svg>
