<?xml version="1.0" encoding="utf-8"?>
<!-- Generator: Adobe Illustrator 19.0.1, SVG Export Plug-In . SVG Version: 6.00 Build 0)  -->
<svg version="1.1" id="Layer_1" xmlns="http://www.w3.org/2000/svg" xmlns:xlink="http://www.w3.org/1999/xlink" x="0px" y="0px"
	 viewBox="-227 319 156 156" style="enable-background:new -227 319 156 156;" xml:space="preserve">
<style type="text/css">
	.st0{fill:#FFFFFF;}
</style>
<g id="Group_341" transform="translate(-10629)">
	<g id="list" transform="translate(862.938 525.681)">
		<g id="Group_340">
			<path id="Path_1633" class="st0" d="M9651.5-165.7h-13.2c-1.2-1.7-3.2-2.6-5.3-2.6h-3.4c-1.4-2.5-4.7-3.4-7.2-1.9
				c-0.8,0.5-1.5,1.1-1.9,1.9h-3.4c-2.1,0-4,1-5.3,2.6h-13.2c-3.6,0-6.6,3-6.6,6.6V-93c0,3.6,3,6.6,6.6,6.6h52.9
				c3.7,0,6.6-3,6.6-6.6v-66.1C9658.1-162.7,9655.2-165.7,9651.5-165.7z M9613.2-161.7c0-2.2,1.8-4,4-4h4.2c0.6,0,1.1-0.4,1.2-0.9
				c0.5-1.4,2-2.1,3.3-1.6c0.8,0.3,1.4,0.9,1.6,1.6c0.2,0.5,0.7,0.9,1.2,0.9h4.2c2.2,0,4,1.8,4,4v4h-23.8L9613.2-161.7z M9655.5-93
				c0,2.2-1.8,4-4,4h-52.9c-2.2,0-4-1.8-4-4v-66.1c0-2.2,1.8-4,4-4h12c-0.1,0.4-0.1,0.9-0.1,1.3v5.3c0,0.7,0.6,1.3,1.3,1.3h26.4
				c0.7,0,1.3-0.6,1.3-1.3v-5.3c0-0.4,0-0.9-0.1-1.3h12c2.2,0,4,1.8,4,4L9655.5-93z"/>
			<path id="Path_1634" class="st0" d="M9651.5-160.4h-7.9c-0.7,0-1.3,0.6-1.3,1.3c0,0.7,0.6,1.3,1.3,1.3l0,0h6.6v63.5h-50.3v-63.5
				h6.6c0.7,0,1.3-0.6,1.3-1.3c0-0.7-0.6-1.3-1.3-1.3h-7.9c-0.7,0-1.3,0.6-1.3,1.3V-93c0,0.7,0.6,1.3,1.3,1.3h52.9
				c0.7,0,1.3-0.6,1.3-1.3v-66.1C9652.8-159.8,9652.2-160.4,9651.5-160.4z"/>
			<path id="Path_1635" class="st0" d="M9625.1-165.7c-0.7,0-1.3,0.6-1.3,1.3s0.6,1.3,1.3,1.3c0.7,0,1.3-0.6,1.3-1.3
				c0-0.3-0.1-0.7-0.4-0.9C9625.7-165.6,9625.4-165.7,9625.1-165.7z"/>
			<path id="Path_1636" class="st0" d="M9604.3-140.2c-0.5,0.5-0.5,1.4,0,1.9c0,0,0,0,0,0l4,4c0.5,0.5,1.4,0.5,1.9,0l6.6-6.6
				c0.5-0.5,0.5-1.4,0-1.9s-1.4-0.5-1.9,0l-5.7,5.7l-3-3C9605.6-140.7,9604.8-140.7,9604.3-140.2z"/>
			<path id="Path_1637" class="st0" d="M9616.7-128.3c-0.5-0.5-1.4-0.5-1.9,0c0,0,0,0,0,0l-5.7,5.7l-3-3c-0.5-0.5-1.4-0.5-1.9,0
				s-0.5,1.4,0,1.9l0,0l4,4c0.5,0.5,1.4,0.5,1.9,0l6.6-6.6C9617.3-126.9,9617.3-127.8,9616.7-128.3z"/>
			<path id="Path_1638" class="st0" d="M9614.9-113.7l-5.7,5.7l-3-3c-0.5-0.5-1.4-0.5-1.9,0s-0.5,1.4,0,1.9l0,0l4,4
				c0.5,0.5,1.4,0.5,1.9,0l6.6-6.6c0.5-0.5,0.5-1.4,0-1.9S9615.4-114.3,9614.9-113.7z"/>
			<path id="Path_1639" class="st0" d="M9622.4-137.9h22.5c0.7,0,1.3-0.6,1.3-1.3c0-0.7-0.6-1.3-1.3-1.3l0,0h-22.5
				c-0.7,0-1.3,0.6-1.3,1.3C9621.1-138.5,9621.7-137.9,9622.4-137.9z"/>
			<path id="Path_1640" class="st0" d="M9622.4-123.4h22.5c0.7,0,1.3-0.6,1.3-1.3c0-0.7-0.6-1.3-1.3-1.3h-22.5
				c-0.7,0-1.3,0.6-1.3,1.3C9621.1-124,9621.7-123.4,9622.4-123.4z"/>
			<path id="Path_1641" class="st0" d="M9622.4-108.8h22.5c0.7,0,1.3-0.6,1.3-1.3c0-0.7-0.6-1.3-1.3-1.3h-22.5
				c-0.7,0-1.3,0.6-1.3,1.3C9621.1-109.4,9621.7-108.8,9622.4-108.8z"/>
		</g>
	</g>
	<path id="Path_1642" class="st0" d="M10425.2,398.8h3.9v3.9c0,0.9,0.7,1.6,1.6,1.6h9.5c0.9,0,1.6-0.7,1.6-1.6v-3.9h3.9
		c0.9,0,1.6-0.7,1.6-1.6v-9.5c0-0.9-0.7-1.6-1.6-1.6h-3.9v-3.9c0-0.9-0.7-1.6-1.6-1.6h-9.5c-0.9,0-1.6,0.7-1.6,1.6v3.9h-3.9
		c-0.9,0-1.6,0.7-1.6,1.6v9.5C10423.6,398,10424.3,398.8,10425.2,398.8C10425.2,398.8,10425.2,398.8,10425.2,398.8z M10425.8,388.3
		h3.9c0.9,0,1.6-0.7,1.6-1.6v-3.9h8.3v3.9c0,0.9,0.7,1.6,1.6,1.6h3.9v8.3h-3.9c-0.9,0-1.6,0.7-1.6,1.6v3.9h-8.3v-3.9
		c0-0.9-0.7-1.6-1.6-1.6h-3.9V388.3z"/>
</g>
</svg>
