<?xml version="1.0" encoding="utf-8"?>
<!-- Generator: Adobe Illustrator 19.0.1, SVG Export Plug-In . SVG Version: 6.00 Build 0)  -->
<svg version="1.1" id="Layer_1" xmlns="http://www.w3.org/2000/svg" xmlns:xlink="http://www.w3.org/1999/xlink" x="0px" y="0px"
	 viewBox="-226 318.8 157.2 157.2" style="enable-background:new -226 318.8 157.2 157.2;" xml:space="preserve">
<style type="text/css">
	.st0{fill:#FFFFFF;}
</style>
<g id="Group_342" transform="translate(-10629)">
	<g id="ipad" transform="translate(1162.5 523.681)">
		<g id="Group_155" transform="translate(8)">
			<path id="Path_1660" class="st0" d="M9288.8-146.5c0.4,0,0.8-0.2,1-0.4l5.9-5.9c0.6-0.6,0.6-1.5,0-2.1c-0.6-0.6-1.5-0.6-2.1,0
				l0,0l-5.9,5.9c-0.6,0.6-0.6,1.5,0,2.1C9288-146.7,9288.4-146.5,9288.8-146.5L9288.8-146.5z"/>
			<path id="Path_1661" class="st0" d="M9288.8-139.1c0.4,0,0.8-0.2,1-0.4l3-3c0.6-0.6,0.6-1.5,0-2.1c-0.6-0.6-1.5-0.6-2.1,0l0,0
				l-3,3c-0.6,0.6-0.6,1.5,0,2.1C9288-139.3,9288.4-139.1,9288.8-139.1L9288.8-139.1z"/>
			<path id="Path_1662" class="st0" d="M9293.7-147.5c-0.3,0.3-0.4,0.7-0.4,1c0,0.4,0.2,0.8,0.4,1c0.3,0.3,0.7,0.4,1,0.4
				c0.4,0,0.8-0.2,1-0.4c0.3-0.3,0.4-0.7,0.4-1c0-0.8-0.7-1.5-1.5-1.5C9294.3-148,9294-147.8,9293.7-147.5z"/>
			<path id="Path_1663" class="st0" d="M9296.6-148.4c0.6,0.6,1.5,0.6,2.1,0c0,0,0,0,0,0l4.4-4.4c0.6-0.6,0.6-1.5,0-2.1
				c-0.6-0.6-1.5-0.6-2.1,0l-4.4,4.4C9296-149.9,9296-149,9296.6-148.4C9296.6-148.4,9296.6-148.4,9296.6-148.4z"/>
			<path id="Path_1664" class="st0" d="M9311-165.7h-1.5c-0.8,0-1.5,0.7-1.5,1.5s0.7,1.5,1.5,1.5l0,0h1.5c0.8,0,1.5-0.7,1.5-1.5
				S9311.8-165.7,9311-165.7L9311-165.7z"/>
			<path id="Path_1665" class="st0" d="M9336.2-170.1h-53.5c-3.2,0-5.8,2.6-5.8,5.9v76.9c0,3.2,2.6,5.8,5.8,5.9h53.5
				c3.2,0,5.8-2.6,5.8-5.9v-76.9C9342-167.5,9339.4-170.1,9336.2-170.1z M9339-87.3c0,1.6-1.2,2.9-2.8,2.9h-53.5
				c-1.6,0-2.8-1.3-2.8-2.9v-76.9c0-1.6,1.2-2.9,2.8-2.9h53.5c1.6,0,2.8,1.3,2.8,2.9L9339-87.3z"/>
			<path id="Path_1666" class="st0" d="M9337.6-161.3h-56.1v65h56.1V-161.3z M9334.6-99.2h-50.2v-59.1h50.2V-99.2z"/>
			<path id="Path_1667" class="st0" d="M9315.4-90.4c0-3.3-2.6-5.9-5.9-5.9s-5.9,2.6-5.9,5.9s2.6,5.9,5.9,5.9
				C9312.8-84.5,9315.4-87.1,9315.4-90.4z M9309.5-87.4c-1.6,0-3-1.3-3-3c0-1.6,1.3-3,3-3s3,1.3,3,3
				C9312.5-88.7,9311.1-87.4,9309.5-87.4z"/>
		</g>
	</g>
</g>
</svg>
